<?xml version="1.0" encoding="iso-8859-1"?>
<!-- Generator: Adobe Illustrator 19.0.0, SVG Export Plug-In . SVG Version: 6.00 Build 0)  -->
<svg version="1.1" id="Capa_1" xmlns="http://www.w3.org/2000/svg" xmlns:xlink="http://www.w3.org/1999/xlink" x="0px" y="0px"
	 viewBox="0 0 511.999 511.999" style="enable-background:new 0 0 511.999 511.999;" xml:space="preserve">
<linearGradient id="SVGID_1_" gradientUnits="userSpaceOnUse" x1="0.0044" y1="257.965" x2="512.0496" y2="257.965" gradientTransform="matrix(0.9999 0 0 -0.9999 -0.0044 513.9414)">
	<stop  offset="0" style="stop-color:#00F2FE"/>
	<stop  offset="0.021" style="stop-color:#03EFFE"/>
	<stop  offset="0.293" style="stop-color:#24D2FE"/>
	<stop  offset="0.554" style="stop-color:#3CBDFE"/>
	<stop  offset="0.796" style="stop-color:#4AB0FE"/>
	<stop  offset="1" style="stop-color:#4FACFE"/>
</linearGradient>
<path style="fill:url(#SVGID_1_);" d="M256.049,399.987c-11.045,0-20.003-8.953-20.003-19.998c0-11.045,8.948-19.998,19.993-19.998
	h0.01c11.045,0,19.998,8.953,19.998,19.998C276.048,391.034,267.094,399.987,256.049,399.987z M276.038,309.995V163.008
	c0-11.045-8.953-19.998-19.998-19.998c-11.045,0-19.998,8.953-19.998,19.998v146.987c0,11.045,8.953,19.998,19.998,19.998
	C267.085,329.993,276.038,321.04,276.038,309.995z M497.572,442.677c15.517-22.899,18.731-51.722,8.603-77.101
	c-4.095-10.258-15.729-15.255-25.987-11.16c-10.258,4.095-15.255,15.729-11.16,25.987c5.206,13.043,3.499,27.935-4.567,39.839
	c-8.07,11.91-20.991,18.741-35.449,18.741H83.068c-15.771,0-29.776-8.229-37.465-22.015c-7.701-13.809-7.339-30.082,0.968-43.533
	L219.543,93.382c7.876-12.752,21.519-20.365,36.497-20.365c14.978,0,28.62,7.613,36.497,20.365l127.926,207.124
	c5.804,9.397,18.128,12.312,27.523,6.505c9.396-5.803,12.31-18.126,6.505-27.523L326.564,72.364
	c-15.216-24.636-41.58-39.344-70.525-39.344c-28.944,0-55.309,14.709-70.525,39.344L12.542,352.418
	c-16.036,25.966-16.734,57.38-1.869,84.033c14.853,26.63,41.916,42.528,72.394,42.528h345.944
	C456.949,478.98,481.939,465.747,497.572,442.677z"/>
<g>
</g>
<g>
</g>
<g>
</g>
<g>
</g>
<g>
</g>
<g>
</g>
<g>
</g>
<g>
</g>
<g>
</g>
<g>
</g>
<g>
</g>
<g>
</g>
<g>
</g>
<g>
</g>
<g>
</g>
</svg>
